<?xml version="1.0" encoding="UTF-8" standalone="no"?>
<!-- Created with Inkscape (http://www.inkscape.org/) -->

<svg
   xmlns:dc="http://purl.org/dc/elements/1.1/"
   xmlns:cc="http://creativecommons.org/ns#"
   xmlns:rdf="http://www.w3.org/1999/02/22-rdf-syntax-ns#"
   xmlns:svg="http://www.w3.org/2000/svg"
   xmlns="http://www.w3.org/2000/svg"
   xmlns:sodipodi="http://sodipodi.sourceforge.net/DTD/sodipodi-0.dtd"
   xmlns:inkscape="http://www.inkscape.org/namespaces/inkscape"
   width="800"
   height="800"
   viewBox="0 0 211.66666 211.66667"
   version="1.1"
   id="svg8"
   inkscape:version="0.92.4 (5da689c313, 2019-01-14)"
   sodipodi:docname="whoobe-one-2.svg">
  <defs
     id="defs2" />
  <sodipodi:namedview
     id="base"
     pagecolor="#ffffff"
     bordercolor="#666666"
     borderopacity="1.0"
     inkscape:pageopacity="0.0"
     inkscape:pageshadow="2"
     inkscape:zoom="0.94918323"
     inkscape:cx="273.40936"
     inkscape:cy="344.79551"
     inkscape:document-units="mm"
     inkscape:current-layer="layer1"
     showgrid="false"
     units="px"
     showguides="true"
     inkscape:guide-bbox="true"
     inkscape:window-width="1920"
     inkscape:window-height="1013"
     inkscape:window-x="-9"
     inkscape:window-y="-9"
     inkscape:window-maximized="1">
    <sodipodi:guide
       position="27.219816,37.64182"
       orientation="1,0"
       id="guide5991"
       inkscape:locked="false" />
    <sodipodi:guide
       position="45.856809,54.19441"
       orientation="1,0"
       id="guide6031"
       inkscape:locked="false" />
    <sodipodi:guide
       position="22.192734,35.802642"
       orientation="0,1"
       id="guide6033"
       inkscape:locked="false" />
    <sodipodi:guide
       position="36.415701,40.216667"
       orientation="0,1"
       id="guide6047"
       inkscape:locked="false" />
    <sodipodi:guide
       position="7.8471542,52.232623"
       orientation="1,0"
       id="guide6049"
       inkscape:locked="false" />
  </sodipodi:namedview>
  <metadata
     id="metadata5">
    <rdf:RDF>
      <cc:Work
         rdf:about="">
        <dc:format>image/svg+xml</dc:format>
        <dc:type
           rdf:resource="http://purl.org/dc/dcmitype/StillImage" />
        <dc:title></dc:title>
      </cc:Work>
    </rdf:RDF>
  </metadata>
  <g
     inkscape:label="Livello 1"
     inkscape:groupmode="layer"
     id="layer1"
     transform="translate(0,-85.33332)">
    <circle
       style="opacity:0.972;fill:none;fill-opacity:1;stroke:none;stroke-width:0.6413852;stroke-linecap:round;stroke-linejoin:round;stroke-miterlimit:4;stroke-dasharray:none;stroke-dashoffset:0;stroke-opacity:1;paint-order:stroke fill markers"
       id="path4524-9"
       cx="96.250252"
       cy="273.45853"
       r="24.557285" />
    <g
       aria-label="v"
       transform="matrix(3.1816247,0,0,3.7559469,11.553381,-744.91631)"
       style="font-style:normal;font-weight:normal;font-size:62.48171234px;line-height:1.25;font-family:sans-serif;letter-spacing:0px;word-spacing:0px;fill:#9e00c5;fill-opacity:1;stroke:none;stroke-width:0.65085107"
       id="text6128-8-1">
      <path
         d="m 33.849143,237.19485 6.742411,18.91536 7.261058,-19.7391 q 0.854243,-2.37967 1.677976,-3.35595 0.823734,-1.00678 2.501709,-1.00678 1.58645,0 2.684761,1.0678 1.12882,1.0678 1.12882,2.4712 0,0.54916 -0.21356,1.28136 -0.183052,0.73221 -0.45763,1.37289 -0.244069,0.64068 -0.579664,1.46442 l -7.993266,19.83062 q -0.335595,0.85424 -0.884751,2.16611 -0.518647,1.31187 -1.189837,2.25764 -0.640682,0.91526 -1.616959,1.43391 -0.945768,0.51865 -2.318657,0.51865 -1.769502,0 -2.837304,-0.79323 -1.037294,-0.82373 -1.555941,-1.7695 -0.488139,-0.97628 -1.677976,-3.81358 l -7.932249,-19.61706 q -0.274577,-0.73221 -0.579664,-1.46442 -0.274578,-0.73221 -0.488138,-1.49492 -0.183052,-0.76272 -0.183052,-1.31187 0,-0.85425 0.518647,-1.67798 0.518647,-0.85424 1.433906,-1.37289 0.91526,-0.54915 1.983062,-0.54915 2.074589,0 2.837305,1.18983 0.793225,1.18984 1.738993,3.99664 z"
         style="font-style:normal;font-variant:normal;font-weight:normal;font-stretch:normal;font-family:'Arial Rounded MT Bold';-inkscape-font-specification:'Arial Rounded MT Bold, ';fill:#9e00c5;fill-opacity:1;stroke-width:0.65085107"
         id="path6272"
         inkscape:connector-curvature="0" />
    </g>
    <g
       aria-label="v"
       transform="matrix(3.1816247,0,0,3.7559469,11.553381,-744.91631)"
       style="font-style:normal;font-weight:normal;font-size:62.48171234px;line-height:1.25;font-family:sans-serif;letter-spacing:0px;word-spacing:0px;fill:#260027;fill-opacity:1;stroke:none;stroke-width:0.65085107"
       id="text6128-8-1-8">
      <path
         d="m 10.781733,237.18719 6.742411,18.91536 7.261059,-19.7391 q 0.854242,-2.37967 1.677975,-3.35595 0.823734,-1.00678 2.50171,-1.00678 1.586449,0 2.684761,1.0678 1.12882,1.0678 1.12882,2.4712 0,0.54916 -0.213561,1.28136 -0.183052,0.73221 -0.45763,1.37289 -0.244069,0.64068 -0.579664,1.46442 l -7.993266,19.83062 q -0.335595,0.85424 -0.884751,2.16611 -0.518647,1.31187 -1.189837,2.25764 -0.640682,0.91526 -1.616958,1.43391 -0.945768,0.51865 -2.318658,0.51865 -1.769501,0 -2.837304,-0.79323 -1.037294,-0.82373 -1.555941,-1.7695 -0.488138,-0.97628 -1.677976,-3.81358 L 3.5206747,239.87195 q -0.2745778,-0.73221 -0.5796643,-1.46442 -0.2745779,-0.7322 -0.4881384,-1.49492 -0.1830519,-0.76272 -0.1830519,-1.31187 0,-0.85425 0.518647,-1.67798 0.5186471,-0.85424 1.4339065,-1.37289 0.9152595,-0.54915 1.9830622,-0.54915 2.0745881,0 2.8373043,1.18983 0.7932249,1.18984 1.7389929,3.99664 z"
         style="font-style:normal;font-variant:normal;font-weight:normal;font-stretch:normal;font-family:'Arial Rounded MT Bold';-inkscape-font-specification:'Arial Rounded MT Bold, ';fill:#260027;fill-opacity:1;stroke-width:0.65085107"
         id="path6269"
         inkscape:connector-curvature="0" />
    </g>
    <path
       sodipodi:type="star"
       style="opacity:0.972;fill:#73b09b;fill-opacity:1;stroke:#73b09b;stroke-width:0.08533892;stroke-linecap:round;stroke-linejoin:round;stroke-miterlimit:4;stroke-dasharray:none;stroke-dashoffset:0;stroke-opacity:0.97254902;paint-order:stroke fill markers"
       id="path6253"
       sodipodi:sides="3"
       sodipodi:cx="18.190855"
       sodipodi:cy="272.87173"
       sodipodi:r1="0.57508242"
       sodipodi:r2="0.28754121"
       sodipodi:arg1="-0.85196633"
       sodipodi:arg2="0.19523122"
       inkscape:flatsided="true"
       inkscape:rounded="0"
       inkscape:randomized="0"
       d="m 18.569549,272.43894 -0.193231,0.97715 -0.74962,-0.65592 z"
       inkscape:transform-center-y="-1.9516374"
       transform="matrix(27.675638,-43.914599,24.21616,50.188161,-7007.5297,-12664.379)"
       inkscape:transform-center-x="0.00023762773" />
  </g>
</svg>
